<svg xmlns="http://www.w3.org/2000/svg" version="1.1" xmlns:xlink="http://www.w3.org/1999/xlink" xmlns:svgjs="http://svgjs.com/svgjs" width="1440" height="560" preserveAspectRatio="none" viewBox="0 0 1440 560">
    <g mask="url(&quot;#SvgjsMask1005&quot;)" fill="none">
        <rect width="1440" height="560" x="0" y="0" fill="#0e2a47"></rect>
        <path d="M757.05 268.05 a44.67 44.67 0 1 0 89.34 0 a44.67 44.67 0 1 0 -89.34 0z" fill="#d3b714"></path>
        <path d="M681.26 367.24L683.2 367.24L683.2 373.18L681.26 373.18z" fill="#e73635"></path>
        <path d="M1130.38 12.62 a24.54 24.54 0 1 0 49.08 0 a24.54 24.54 0 1 0 -49.08 0z" stroke="#037b0b"></path>
        <path d="M974.06 309.3L988.79 309.3L988.79 360.44L974.06 360.44z" stroke="#e73635"></path>
        <path d="M813.91 53.9L865.65 53.9L865.65 105.64L813.91 105.64z" stroke="rgba(62, 221, 176, 1)"></path>
        <path d="M789.8 452.95 a16.96 16.96 0 1 0 33.92 0 a16.96 16.96 0 1 0 -33.92 0z" fill="#037b0b"></path>
        <path d="M1120.64 235.62a41.37 41.37 0 1 0-12.18 81.84z" stroke="#037b0b"></path>
        <path d="M562.45 249.58L589.44 249.58L589.44 276.57L562.45 276.57z" stroke="#037b0b"></path>
        <path d="M554.89 416.31 a41.4 41.4 0 1 0 82.8 0 a41.4 41.4 0 1 0 -82.8 0z" fill="rgba(62, 221, 176, 1)"></path>
        <path d="M454.07 122.48L470.82 122.48L470.82 160.54L454.07 160.54z" fill="#e73635"></path>
        <path d="M173.56 48.35L185.58 48.35L185.58 60.37L173.56 60.37z" fill="#d3b714"></path>
        <path d="M632 119.25L662.87 119.25L662.87 125.53L632 125.53z" fill="rgba(62, 221, 176, 1)"></path>
        <path d="M1272.47 412.52a26.54 26.54 0 1 0 36.65 38.4z" fill="#037b0b"></path>
        <path d="M130.5 417.75L138.19 417.75L138.19 425.44L130.5 425.44z" fill="#e73635"></path>
        <path d="M1404.44 71.22 a29.64 29.64 0 1 0 59.28 0 a29.64 29.64 0 1 0 -59.28 0z" fill="#e73635"></path>
        <path d="M59.92 428.41 a11.48 11.48 0 1 0 22.96 0 a11.48 11.48 0 1 0 -22.96 0z" stroke="#e73635"></path>
        <path d="M81.75 275.52a20.62 20.62 0 1 0-20.85 35.58z" fill="#037b0b"></path>
        <path d="M1253.57 421.76L1288.35 421.76L1288.35 423.07L1253.57 423.07z" stroke="#037b0b"></path>
        <path d="M153.13 546.07L163.86 546.07L163.86 555.42L153.13 555.42z" stroke="#037b0b"></path>
        <path d="M810.29 315.06a42.63 42.63 0 1 0 15.65-83.81z" fill="#d3b714"></path>
        <path d="M509.7 175.2a9.7 9.7 0 1 0 1.85 19.31z" fill="#e73635"></path>
        <path d="M1391.58 334.43 a42.55 42.55 0 1 0 85.1 0 a42.55 42.55 0 1 0 -85.1 0z" stroke="#037b0b"></path>
        <path d="M82.89 362.1 a38.6 38.6 0 1 0 77.2 0 a38.6 38.6 0 1 0 -77.2 0z" stroke="#d3b714"></path>
        <path d="M393.24 438.36a22.84 22.84 0 1 0-44.97-8.02z" fill="#037b0b"></path>
        <path d="M412.06 238.95L430.69 238.95L430.69 257.58L412.06 257.58z" stroke="#d3b714"></path>
        <path d="M1240.67 228.01a38.37 38.37 0 1 0 68.76 34.08z" stroke="#e73635"></path>
        <path d="M1213.62 461.11a27.45 27.45 0 1 0-9.04 54.16z" fill="#e73635"></path>
        <path d="M838.61 286.43L875.06 286.43L875.06 316.02L838.61 316.02z" stroke="rgba(62, 221, 176, 1)"></path>
        <path d="M1423.03 377.5L1457.58 377.5L1457.58 412.05L1423.03 412.05z" fill="#e73635"></path>
        <path d="M1132.8 548.26 a49.02 49.02 0 1 0 98.04 0 a49.02 49.02 0 1 0 -98.04 0z" fill="#d3b714"></path>
        <path d="M495.73 426.21L522.97 426.21L522.97 439.09L495.73 439.09z" stroke="rgba(62, 221, 176, 1)"></path>
        <path d="M152.16 66.59L155.79 66.59L155.79 70.22L152.16 70.22z" fill="#e73635"></path>
        <path d="M1186.42 126.57 a13.78 13.78 0 1 0 27.56 0 a13.78 13.78 0 1 0 -27.56 0z" fill="#d3b714"></path>
    </g>
    <defs>
        <mask id="SvgjsMask1005">
            <rect width="1440" height="560" fill="#ffffff"></rect>
        </mask>
    </defs>
</svg>